<svg width="109" height="109" viewBox="0 0 109 109" fill="none" xmlns="http://www.w3.org/2000/svg">
<circle cx="54.3826" cy="54.3826" r="54.3826" fill="#42C2FF"/>
<path d="M49.6516 60.2943H57.6652C62.0322 60.2943 65.4674 63.2215 65.4674 66.6868V66.858C65.4674 70.3235 62.0322 73.2507 57.6652 73.2507H46.5154C45.9903 73.2507 45.5644 73.6764 45.5644 74.2018C45.5644 74.7272 45.9903 75.1529 46.5154 75.1529H57.6652C62.9606 75.1529 67.3696 71.4836 67.3696 66.858V66.6868C67.3694 62.0614 62.9606 58.3921 57.6652 58.3921H49.6515L54.9462 54.8554L54.9462 54.8553C55.3829 54.5636 55.5008 53.973 55.2087 53.5361C54.9168 53.0996 54.3263 52.9818 53.8896 53.2737L49.6516 60.2943ZM49.6516 60.2943L54.9461 63.8311L54.7517 64.1221L54.9461 63.8311C55.3829 64.1229 55.5004 64.7135 55.2086 65.1503L55.2086 65.1503C54.919 65.5835 54.3297 65.7069 53.8895 65.4128C53.8894 65.4127 53.8894 65.4127 53.8894 65.4127L45.9871 60.1339L45.9863 60.1334C45.4949 59.8032 45.4131 59.0978 45.8465 58.6685C45.8835 58.6273 45.9249 58.5985 45.9637 58.5714L45.9679 58.5685C46.022 58.5307 46.1207 58.4637 46.3059 58.3394C46.6774 58.0899 47.4072 57.6027 48.8502 56.6392L48.8531 56.6372L48.8572 56.6345C50.0151 55.8614 51.6317 54.782 53.8895 53.2737L49.6516 60.2943ZM35.011 27.0916L35.0111 27.0915C35.1855 26.8166 35.4885 26.65 35.8142 26.65H73.3111C73.6367 26.65 73.9397 26.8166 74.1141 27.0915L74.1142 27.0916C77.0616 31.7396 78.81 34.4933 79.8479 36.1282L79.8494 36.1305C80.5978 37.3092 80.977 37.9064 81.17 38.2125C81.2659 38.3647 81.3178 38.448 81.3463 38.4954L81.3485 38.4992C81.3686 38.5326 81.3939 38.5746 81.4105 38.6272C81.4525 38.7353 81.4761 38.8573 81.4752 38.9753M35.011 27.0916L28 38.9739H27.65V38.9754V79.6515C27.65 80.1769 28.0759 80.6026 28.6011 80.6026H80.5241C81.0495 80.6026 81.4752 80.1769 81.4752 79.6515V38.9753M35.011 27.0916C32.0519 31.7579 30.3011 34.5156 29.2644 36.1485L29.264 36.1492C28.52 37.321 28.1434 37.9143 27.952 38.2179M35.011 27.0916L27.952 38.2179M81.4752 38.9753C81.4752 38.9759 81.4752 38.9765 81.4752 38.9771L81.1252 38.9737M81.4752 38.9753V38.9737H81.1252M81.1252 38.9737C81.1259 38.8986 81.1098 38.8167 81.0811 38.7461L81.1252 38.9737ZM27.952 38.2179C27.857 38.3687 27.8057 38.4511 27.7776 38.4979M27.952 38.2179L27.7776 38.4979M27.7776 38.4979C27.7766 38.4996 27.7755 38.5013 27.7744 38.5031M27.7776 38.4979L27.7744 38.5031M27.7744 38.5031C27.7564 38.5331 27.7312 38.575 27.7147 38.6274L27.7744 38.5031ZM27.7083 38.6498C27.7083 38.6501 27.7083 38.6499 27.7085 38.6492L27.7083 38.6498ZM33.536 66.179C33.0108 66.179 32.5849 66.6047 32.5849 67.13V76.9879C32.5849 77.5133 33.0108 77.939 33.536 77.939C34.0611 77.939 34.487 77.5133 34.487 76.9879V67.13C34.487 66.6048 34.0612 66.179 33.536 66.179ZM36.6016 66.179C36.0765 66.179 35.6505 66.6047 35.6505 67.13V76.9879C35.6505 77.5133 36.0765 77.939 36.6016 77.939C37.1268 77.939 37.5527 77.5133 37.5527 76.9879V67.13C37.5527 66.6048 37.1269 66.179 36.6016 66.179ZM59.4619 28.5522H72.7881L78.7943 38.019H61.0071L60.898 37.3511L60.4979 34.9013C60.1934 33.0366 59.8086 30.6797 59.4619 28.5522ZM49.8859 39.9212H59.2388V47.6861H49.8859V39.9212ZM59.0793 38.019H50.0452L51.5898 28.5522H57.5347L59.0793 38.019ZM36.3371 28.5521H49.6628L48.1174 38.0189H30.3309L36.3371 28.5521ZM79.5732 39.9212L79.573 78.7003H29.5522V39.9212H47.9838V48.6372C47.9838 49.1624 48.4096 49.5882 48.9349 49.5882H60.1899C60.7153 49.5882 61.141 49.1623 61.141 48.6372V39.9212H79.5732Z" fill="white" stroke="white" stroke-width="0.7"/>
</svg>
