<svg width="110" height="109" viewBox="0 0 110 109" fill="none" xmlns="http://www.w3.org/2000/svg">
<circle cx="55.2356" cy="54.3826" r="54.3826" fill="#42C2FF"/>
<path d="M50.5044 60.2943L55.7988 63.8311L55.7989 63.8311C56.2356 64.1229 56.3532 64.7135 56.0613 65.1503L56.0613 65.1503C55.7717 65.5835 55.1824 65.7069 54.7421 65.4127L54.7419 65.4126L54.7404 65.4116L54.7358 65.4085L54.7184 65.3968L54.6514 65.3521L54.3994 65.1838L53.5043 64.5858L50.7928 62.7746L46.839 60.1334C46.839 60.1333 46.8389 60.1333 46.8388 60.1332C46.8388 60.1332 46.8388 60.1332 46.8388 60.1332C46.3476 59.803 46.2659 59.098 46.699 58.6687C46.7099 58.6565 46.7231 58.6431 46.7401 58.6286C46.7655 58.6069 46.8001 58.5826 46.8434 58.5526C46.94 58.4859 47.1494 58.3451 47.6161 58.033C48.0493 57.7433 48.7065 57.3045 49.7054 56.6375C50.8637 55.8641 52.4815 54.7839 54.7422 53.2737L50.5044 60.2943ZM50.5044 60.2943H58.5179C62.8849 60.2943 66.3201 63.2215 66.3201 66.6868V66.858C66.3201 70.3235 62.8849 73.2507 58.5179 73.2507H47.3682C46.843 73.2507 46.4171 73.6764 46.4171 74.2018C46.4171 74.7272 46.843 75.1529 47.3682 75.1529H58.5179C63.8134 75.1529 68.2223 71.4836 68.2223 66.858V66.6868C68.2222 62.0614 63.8134 58.3921 58.5179 58.3921H50.5042L55.799 54.8554L55.799 54.8553C56.2356 54.5636 56.3535 53.973 56.0614 53.5361C55.7696 53.0996 55.1791 52.9818 54.7423 53.2737L50.5044 60.2943Z" fill="white" stroke="white" stroke-width="0.7"/>
<path d="M75.339 28.0325L75.3391 28.0326C78.2885 32.6837 80.0372 35.438 81.0749 37.0725C81.3841 37.5595 81.6302 37.9471 81.8262 38.2559C82.2523 38.9274 82.4423 39.2277 82.5282 39.3662C82.5677 39.43 82.5935 39.4726 82.6091 39.5037C82.6199 39.5253 82.6285 39.5462 82.6355 39.5685C82.6775 39.6766 82.701 39.7984 82.7001 39.9162M75.339 28.0325L82.3501 39.9147M75.339 28.0325C75.1646 27.7576 74.8616 27.591 74.5359 27.591H37.039C36.7134 27.591 36.4104 27.7576 36.236 28.0325L36.2359 28.0326C33.2765 32.6994 31.5257 35.457 30.489 37.0899C30.182 37.5735 29.9376 37.9584 29.743 38.2651C29.3178 38.9351 29.1292 39.2331 29.0446 39.3697C29.006 39.4319 28.9801 39.4746 28.9646 39.5059C28.954 39.5272 28.9456 39.548 28.939 39.5698C28.8971 39.678 28.874 39.7997 28.8749 39.9164M75.339 28.0325L29.2249 39.9149M82.7001 39.9162C82.7001 39.9168 82.7001 39.9174 82.7001 39.918L82.3501 39.9147M82.7001 39.9162V39.9147H82.3501M82.7001 39.9162V80.5925C82.7001 81.1179 82.2743 81.5436 81.749 81.5436H29.826C29.3008 81.5436 28.8749 81.1179 28.8749 80.5925V39.9164M82.3501 39.9147V80.5925C82.3501 80.9246 82.081 81.1936 81.749 81.1936H29.826C29.494 81.1936 29.2249 80.9246 29.2249 80.5925V39.9149M28.8749 39.9164C28.8749 39.917 28.8749 39.9176 28.8749 39.9183L29.2249 39.9149M28.8749 39.9164V39.9149H29.2249M82.306 39.6871L82.6305 39.5561M82.306 39.6871L82.6305 39.5561M82.306 39.6871L82.6301 39.5551C82.6303 39.5554 82.6304 39.5557 82.6305 39.5561M82.306 39.6871L82.6305 39.5561M74.013 29.4932L80.0192 38.96H62.2322C62.1825 38.6549 62.1139 38.2357 62.0197 37.6592C61.7799 36.1928 61.3737 33.7084 60.6868 29.4932H74.013ZM51.1108 40.8622H60.4637V48.6271H51.1108V40.8622ZM60.3042 38.96H51.2701L52.8147 29.4932H58.7595L60.3042 38.96ZM37.562 29.493H50.8877C50.2086 33.6601 49.8038 36.1357 49.5629 37.6085C49.4644 38.2111 49.3933 38.6459 49.3421 38.9599H31.5558L37.562 29.493ZM80.798 79.6413H30.7771V40.8622H49.2086V49.5781C49.2086 50.1034 49.6345 50.5292 50.1597 50.5292H61.4148C61.9401 50.5292 62.3658 50.1033 62.3658 49.5781V40.8622H80.798V79.6413Z" fill="white" stroke="white" stroke-width="0.7"/>
<path d="M34.3887 66.179C33.8635 66.179 33.4376 66.6047 33.4376 67.1301V76.9879C33.4376 77.5133 33.8635 77.939 34.3887 77.939C34.9139 77.939 35.3398 77.5133 35.3398 76.9879V67.1301C35.3398 66.6048 34.9139 66.179 34.3887 66.179Z" fill="white" stroke="white" stroke-width="0.7"/>
<path d="M37.4544 66.179C36.9292 66.179 36.5033 66.6047 36.5033 67.1301V76.9879C36.5033 77.5133 36.9292 77.939 37.4544 77.939C37.9795 77.939 38.4054 77.5133 38.4054 76.9879V67.1301C38.4054 66.6048 37.9796 66.179 37.4544 66.179Z" fill="white" stroke="white" stroke-width="0.7"/>
</svg>
